# Wavefront OBJ exported by MilkShape 3D

mtllib Spring.mtl

v -0.656494 -3.779541 -1.136963
v 0.000000 -3.779541 -1.312988
v 0.000000 -4.108887 0.000000
v 0.000000 -2.879883 -2.273926
v -1.136963 -2.879883 -1.969482
v 0.000000 -1.650879 -2.625732
v -1.312988 -1.650879 -2.273926
v 0.000000 -0.421875 -2.273926
v -1.136963 -0.421875 -1.969482
v 0.000000 0.392090 -1.433350
v -1.241211 0.392090 -0.716553
v 0.656494 -3.779541 -1.136963
v 1.136963 -3.779541 -0.656494
v 0.000000 -4.108887 0.000000
v 1.969482 -2.879883 -1.136963
v 1.136963 -2.879883 -1.969482
v 2.273926 -1.650879 -1.312988
v 1.312988 -1.650879 -2.273926
v 1.969482 -0.421875 -1.136963
v 1.136963 -0.421875 -1.969482
v 1.241211 0.392090 -0.716553
v 1.312988 -3.779541 0.000000
v 1.136963 -3.779541 0.656494
v 0.000000 -4.108887 0.000000
v 1.969482 -2.879883 1.136963
v 2.273926 -2.879883 0.000000
v 2.273926 -1.650879 1.312988
v 2.625732 -1.650879 0.000000
v 1.969482 -0.421875 1.136963
v 2.273926 -0.421875 0.000000
v 1.241211 0.392090 0.716553
v 0.656494 -3.779541 1.136963
v 0.000000 -3.779541 1.312988
v 0.000000 -4.108887 0.000000
v 0.000000 -2.879883 2.273926
v 1.136963 -2.879883 1.969483
v 0.000000 -1.650879 2.625732
v 1.312988 -1.650879 2.273926
v 0.000000 -0.421875 2.273926
v 1.136963 -0.421875 1.969482
v 0.000000 0.392090 1.433350
v -0.656494 -3.779541 1.136963
v -1.136963 -3.779541 0.656494
v 0.000000 -4.108887 0.000000
v -1.969482 -2.879883 1.136963
v -1.136963 -2.879883 1.969483
v -2.273926 -1.650879 1.312988
v -1.312988 -1.650879 2.273926
v -1.969482 -0.421875 1.136963
v -1.136963 -0.421875 1.969482
v -1.241211 0.392090 0.716553
v -1.312988 -3.779541 0.000000
v -1.136963 -3.779541 -0.656494
v 0.000000 -4.108887 0.000000
v -1.969482 -2.879883 -1.136963
v -2.273926 -2.879883 0.000000
v -2.273926 -1.650879 -1.312988
v -2.625732 -1.650879 0.000000
v -1.969482 -0.421875 -1.136963
v -2.273926 -0.421875 0.000000
v 0.000000 -4.108887 0.000000
v 0.000000 -4.108887 0.000000
v 0.000000 -4.108887 0.000000
v 0.000000 -4.108887 0.000000
v 0.000000 -4.108887 0.000000
v -1.312988 -3.779541 0.000000
v 0.000000 -4.108887 0.000000
v -2.273926 -2.879883 0.000000
v -2.625732 -1.650879 0.000000
v -2.273926 -0.421875 0.000000
v -1.241211 0.392090 0.716553
v 0.000000 5.942139 1.436523
v -1.243896 5.942139 0.718262
v 0.000000 0.392090 1.433350
v 1.243896 5.942139 0.718262
v 1.241211 0.392090 0.716553
v 1.243896 5.942139 -0.718262
v 1.241211 0.392090 -0.716553
v 0.000000 5.942139 -1.436524
v 0.000000 0.392090 -1.433350
v -1.243896 5.942139 0.718262
v -1.241211 0.392090 -0.716553
v -1.241211 0.392090 0.716553
v -1.243896 5.942139 -0.718262
v -1.241211 0.392090 -0.716553
v 3.832031 3.322802 -6.530762
v 6.397949 3.058642 -3.753906
v 3.753906 3.058642 -6.397949
v 6.531250 3.322802 -3.832031
v 2.983398 5.848681 -5.084961
v 5.084961 5.848681 -2.983399
v 3.373535 7.377490 -1.979492
v 5.922852 5.848681 -0.000000
v 3.929688 7.377490 -0.000000
v 5.084961 5.848681 2.983398
v 3.373535 7.377490 1.979492
v 1.979492 7.377490 3.373535
v 7.606934 3.322803 -0.000000
v 6.397949 3.058643 3.753906
v 7.452148 3.058642 -0.000000
v 6.531250 3.322803 3.832031
v 3.832031 3.322803 6.530762
v 2.983398 5.848681 5.084961
v 0.000000 3.322803 7.606934
v 0.000000 5.848681 5.922363
v -2.983398 5.848681 5.084961
v -1.979492 7.377490 3.373535
v -3.373535 7.377490 1.979492
v -6.530762 3.322803 3.832031
v -7.452148 3.058642 -0.000000
v -6.397949 3.058643 3.753906
v -7.606934 3.322803 -0.000000
v -5.922852 5.848681 -0.000000
v -6.530762 3.322802 -3.832031
v -5.084961 5.848681 -2.983399
v -3.832031 3.322802 -6.530762
v -2.983398 5.848681 -5.084961
v 0.000000 5.848681 -5.922363
v 0.000000 7.377490 -3.929199
v 1.979492 7.377490 -3.373535
v -3.753906 3.058643 6.397949
v 0.000000 3.058643 7.452148
v -3.832031 3.322803 6.530762
v -5.084961 5.848681 2.983398
v -3.929199 7.377490 -0.000000
v 0.000000 3.058642 -7.452148
v -3.753906 3.058642 -6.397949
v 0.000000 3.322802 -7.606934
v 3.832031 3.322802 -6.530762
v 2.983398 5.848681 -5.084961
v 0.000000 3.071338 -0.000000
v 3.753906 3.058643 6.397949
v 0.000000 3.058643 7.452148
v 6.397949 3.058643 3.753906
v 7.452148 3.058642 -0.000000
v 6.397949 3.058642 -3.753906
v 3.753906 3.058642 -6.397949
v 0.000000 3.058642 -7.452148
v -3.753906 3.058642 -6.397949
v -6.397949 3.058642 -3.753906
v -7.452148 3.058642 -0.000000
v 0.000000 8.121631 -0.000000
v 1.979492 7.377490 -3.373535
v 0.000000 7.377490 -3.929199
v 3.373535 7.377490 -1.979492
v 3.929688 7.377490 -0.000000
v 3.373535 7.377490 1.979492
v 1.979492 7.377490 3.373535
v 0.000000 7.377490 3.929199
v -1.979492 7.377490 3.373535
v -3.373535 7.377490 1.979492
v -3.929199 7.377490 -0.000000
v 3.753906 3.058643 6.397949
v -6.397949 3.058642 -3.753906
v 3.753906 3.058642 -6.397949
v 0.000000 7.377490 3.929199
v -3.373535 7.377490 -1.979492
v -1.979492 7.377490 -3.373535
v -3.753906 3.058643 6.397949
v 0.000000 3.058643 7.452148
v -6.397949 3.058643 3.753906
v -1.979492 7.377490 -3.373535
v -3.373535 7.377490 -1.979492
v 1.979492 7.377490 -3.373535
# 164 vertices

vt 0.301300 0.402405
vt 0.301300 0.394623
vt 0.364868 0.394623
vt 0.233643 0.394623
vt 0.233643 0.402405
vt 0.168030 0.394623
vt 0.168030 0.402405
vt 0.076630 0.394623
vt 0.076630 0.402405
vt 0.004578 0.402405
vt 0.004578 0.417999
vt 0.301300 0.386810
vt 0.301300 0.378998
vt 0.364868 0.378998
vt 0.233643 0.378998
vt 0.233643 0.386810
vt 0.168030 0.378998
vt 0.168030 0.386810
vt 0.076630 0.378998
vt 0.076630 0.386810
vt 0.004578 0.386810
vt 0.301300 0.371216
vt 0.301300 0.363403
vt 0.364868 0.363403
vt 0.233643 0.363403
vt 0.233643 0.371216
vt 0.168030 0.363403
vt 0.168030 0.371216
vt 0.076630 0.363403
vt 0.076630 0.371216
vt 0.004578 0.371216
vt 0.301300 0.355621
vt 0.301300 0.347809
vt 0.364868 0.347809
vt 0.233643 0.347809
vt 0.233643 0.355621
vt 0.168030 0.347809
vt 0.168030 0.355621
vt 0.076630 0.347809
vt 0.076630 0.355621
vt 0.004578 0.355621
vt 0.301300 0.340027
vt 0.301300 0.332214
vt 0.364868 0.332214
vt 0.233643 0.332214
vt 0.233643 0.340027
vt 0.168030 0.332214
vt 0.168030 0.340027
vt 0.076630 0.332214
vt 0.076630 0.340027
vt 0.004578 0.340027
vt 0.301300 0.417999
vt 0.301300 0.410217
vt 0.364868 0.410217
vt 0.233643 0.410217
vt 0.233643 0.417999
vt 0.168030 0.410217
vt 0.168030 0.417999
vt 0.076630 0.410217
vt 0.076630 0.417999
vt 0.364868 0.402405
vt 0.364868 0.386810
vt 0.364868 0.371216
vt 0.364868 0.355621
vt 0.364868 0.340027
vt 0.301300 0.324402
vt 0.364868 0.324402
vt 0.233643 0.324402
vt 0.168030 0.324402
vt 0.076630 0.324402
vt 0.984283 0.034027
vt 0.391510 0.140778
vt 0.391510 0.034058
vt 0.984283 0.140747
vt 0.391510 0.250732
vt 0.984283 0.247681
vt 0.391510 0.354004
vt 0.984283 0.353912
vt 0.004578 0.324402
vt 0.355042 0.488556
vt 0.268707 0.463470
vt 0.355042 0.463470
vt 0.268250 0.488892
vt 0.355042 0.774078
vt 0.268494 0.774078
vt 0.268494 0.997620
vt 0.184021 0.774078
vt 0.184021 0.997620
vt 0.100006 0.774078
vt 0.100006 0.997620
vt 0.017151 0.997620
vt 0.183838 0.488892
vt 0.100189 0.463470
vt 0.184235 0.463470
vt 0.099823 0.488892
vt 0.017151 0.488861
vt 0.017151 0.774078
vt 0.355042 0.997620
vt 0.225098 0.009613
vt 0.310364 0.235138
vt 0.224762 0.278564
vt 0.366730 0.144012
vt 0.392639 0.009613
vt 0.688568 0.689148
vt 0.944092 0.539215
vt 0.986176 0.689148
vt 0.838501 0.433624
vt 0.688568 0.391510
vt 0.538666 0.433624
vt 0.433075 0.539215
vt 0.390961 0.689148
vt 0.433075 0.839050
vt 0.538666 0.944641
vt 0.688568 0.986755
vt 0.017151 0.463470
vt 0.944092 0.839050
vt 0.838501 0.944641
# 117 texture coordinates

vn -0.228242 -0.852429 -0.470393
vn 0.037510 -0.852430 -0.521493
vn -0.065097 -0.967894 -0.242783
vn 0.012266 -0.523254 -0.852089
vn -0.415349 -0.523297 -0.744074
vn -0.000000 -0.000000 -1.000000
vn -0.499973 0.000008 -0.866041
vn -0.052866 0.468727 -0.881759
vn -0.461406 0.530762 -0.710912
vn -0.000000 0.774101 -0.633062
vn -0.510859 0.751708 -0.417083
vn 0.293271 -0.852445 -0.432816
vn 0.470393 -0.852429 -0.228242
vn 0.177741 -0.967893 -0.177741
vn 0.744074 -0.523297 -0.415348
vn 0.436652 -0.523275 -0.731791
vn 0.866041 0.000008 -0.499973
vn 0.499973 -0.000008 -0.866041
vn 0.737199 0.468783 -0.486602
vn 0.384887 0.530772 -0.755079
vn 0.548232 0.774141 -0.316461
vn 0.521493 -0.852430 0.037510
vn 0.432817 -0.852445 0.293270
vn 0.242783 -0.967894 0.065097
vn 0.731791 -0.523275 0.436652
vn 0.852089 -0.523253 0.012266
vn 0.866041 -0.000008 0.499973
vn 1.000000 -0.000000 -0.000000
vn 0.790056 0.468794 0.395023
vn 0.846362 0.530774 -0.044174
vn 0.548232 0.774141 0.316461
vn 0.228242 -0.852429 0.470393
vn -0.037510 -0.852430 0.521493
vn 0.065097 -0.967894 0.242783
vn -0.012266 -0.523253 0.852089
vn 0.415348 -0.523297 0.744074
vn -0.000000 0.000000 1.000000
vn 0.499973 0.000008 0.866041
vn 0.052866 0.468727 0.881759
vn 0.461406 0.530762 0.710912
vn -0.000000 0.774101 0.633062
vn -0.293271 -0.852445 0.432816
vn -0.470393 -0.852429 0.228242
vn -0.177741 -0.967893 0.177741
vn -0.744074 -0.523297 0.415348
vn -0.436652 -0.523275 0.731791
vn -0.866041 0.000008 0.499973
vn -0.499973 -0.000008 0.866041
vn -0.737199 0.468783 0.486602
vn -0.384887 0.530772 0.755079
vn -0.548232 0.774141 0.316461
vn -0.545037 -0.825592 -0.146057
vn -0.432817 -0.852445 -0.293270
vn -0.242783 -0.967894 -0.065097
vn -0.731791 -0.523275 -0.436652
vn -0.871921 -0.430369 -0.233529
vn -0.866041 -0.000008 -0.499973
vn -0.961869 0.091733 -0.257670
vn -0.790056 0.468794 -0.395023
vn -0.834881 0.502987 -0.223555
vn -0.177741 -0.967893 -0.177741
vn 0.065097 -0.967894 -0.242783
vn 0.242783 -0.967894 -0.065097
vn 0.177741 -0.967893 0.177741
vn -0.065097 -0.967894 0.242783
vn -0.473162 -0.871792 0.126869
vn -0.242783 -0.967894 0.065097
vn -0.782854 -0.585800 0.209708
vn -0.961869 -0.091733 0.257670
vn -0.828844 0.530216 0.178572
vn -0.189025 -0.000567 0.981972
vn 0.189011 -0.000567 0.981975
vn 0.755969 -0.000562 0.654608
vn 0.944921 -0.000558 0.327297
vn 0.944917 -0.000558 -0.327311
vn 0.755969 -0.000562 -0.654608
vn 0.189025 -0.000567 -0.981972
vn -0.189011 -0.000567 -0.981975
vn -1.000000 -0.000484 0.000000
vn -0.944921 -0.000558 -0.327297
vn -0.755969 -0.000562 -0.654608
vn -0.619018 0.785377 -0.000000
vn 0.696851 -0.169355 -0.696934
vn 0.705039 -0.503183 -0.499727
vn 0.615733 -0.491676 -0.615733
vn 0.863417 0.029159 -0.503648
vn 0.524692 0.670349 -0.524719
vn 0.671612 0.657141 -0.342203
vn 0.526757 0.792120 -0.308338
vn 0.705988 0.707368 -0.034790
vn 0.607606 0.792200 0.056879
vn 0.630861 0.682388 0.369270
vn 0.526734 0.792132 0.308347
vn 0.353701 0.791038 0.499153
vn 0.992158 0.118224 0.040563
vn 0.780991 -0.503069 0.370101
vn 0.859784 -0.504286 -0.080413
vn 0.831306 -0.094721 0.547684
vn 0.503614 0.029536 0.863424
vn 0.313603 0.680975 0.661760
vn -0.040589 0.118422 0.992133
vn -0.034761 0.707400 0.705958
vn -0.397250 0.664724 0.632720
vn -0.261994 0.790983 0.552906
vn -0.526740 0.792147 0.308297
vn -0.875488 0.117858 0.468647
vn -0.860009 -0.503888 0.080510
vn -0.705406 -0.502502 0.499895
vn -0.993908 -0.094575 -0.056590
vn -0.745187 0.666390 0.024896
vn -0.861897 0.029406 -0.506230
vn -0.600631 0.699141 -0.387870
vn -0.468629 0.117876 -0.875495
vn -0.329420 0.705787 -0.627174
vn 0.024897 0.666380 -0.745196
vn -0.056850 0.792189 -0.607622
vn 0.168396 0.782141 -0.599916
vn -0.370319 -0.502387 0.781327
vn 0.080510 -0.503888 0.860009
vn -0.547695 -0.094250 0.831353
vn -0.630875 0.682373 0.369275
vn -0.607559 0.792235 -0.056882
vn -0.080510 -0.503888 -0.860009
vn -0.499895 -0.502502 -0.705406
vn 0.056592 -0.094525 -0.993913
vn 0.263413 0.224797 -0.938126
vn 0.200588 0.670126 -0.714630
vn 0.000000 -1.000000 0.000000
vn -0.000864 -0.999999 -0.001477
vn -0.001704 -0.999999 0.000000
vn -0.000864 -0.999999 0.001477
vn 0.000864 -0.999999 0.001477
vn 0.001704 -0.999999 0.000000
vn -0.000004 1.000000 0.000000
vn 0.094395 0.982380 -0.161307
vn 0.000000 0.982535 -0.186080
vn 0.161295 0.982380 -0.094415
vn 0.186057 0.982539 0.000000
vn 0.161295 0.982380 0.094415
vn 0.094395 0.982380 0.161307
vn 0.000000 0.982535 0.186080
vn -0.094395 0.982380 0.161307
vn -0.161307 0.982380 0.094395
vn -0.186080 0.982535 0.000000
vn 0.499752 -0.502794 0.705299
vn -0.781327 -0.502387 -0.370319
vn 0.235492 -0.491299 -0.838551
vn 0.056850 0.792189 0.607622
vn -0.526771 0.792132 -0.308285
vn -0.353701 0.791038 -0.499153
vn 0.000864 -0.999999 -0.001477
vn -0.094395 0.982380 -0.161307
vn -0.161307 0.982380 -0.094395
vn 0.440457 0.782301 -0.440457
# 154 normals

g cmn_obj_springred_dif_SD
usemtl cmn_obj_springred_dif_SD
s 1
f 1/1/1 2/2/2 3/3/3
f 1/1/1 4/4/4 2/2/2
f 5/5/5 4/4/4 1/1/1
f 5/5/5 6/6/6 4/4/4
f 7/7/7 6/6/6 5/5/5
f 7/7/7 8/8/8 6/6/6
f 9/9/9 8/8/8 7/7/7
f 9/9/9 10/10/10 8/8/8
f 11/11/11 10/10/10 9/9/9
f 12/12/12 13/13/13 14/14/14
f 12/12/12 15/15/15 13/13/13
f 16/16/16 15/15/15 12/12/12
f 16/16/16 17/17/17 15/15/15
f 18/18/18 17/17/17 16/16/16
f 18/18/18 19/19/19 17/17/17
f 20/20/20 19/19/19 18/18/18
f 20/20/20 21/21/21 19/19/19
f 10/10/10 21/21/21 20/20/20
f 22/22/22 23/23/23 24/24/24
f 22/22/22 25/25/25 23/23/23
f 26/26/26 25/25/25 22/22/22
f 26/26/26 27/27/27 25/25/25
f 28/28/28 27/27/27 26/26/26
f 28/28/28 29/29/29 27/27/27
f 30/30/30 29/29/29 28/28/28
f 30/30/30 31/31/31 29/29/29
f 21/21/21 31/31/31 30/30/30
f 32/32/32 33/33/33 34/34/34
f 32/32/32 35/35/35 33/33/33
f 36/36/36 35/35/35 32/32/32
f 36/36/36 37/37/37 35/35/35
f 38/38/38 37/37/37 36/36/36
f 38/38/38 39/39/39 37/37/37
f 40/40/40 39/39/39 38/38/38
f 40/40/40 41/41/41 39/39/39
f 31/31/31 41/41/41 40/40/40
f 42/42/42 43/43/43 44/44/44
f 42/42/42 45/45/45 43/43/43
f 46/46/46 45/45/45 42/42/42
f 46/46/46 47/47/47 45/45/45
f 48/48/48 47/47/47 46/46/46
f 48/48/48 49/49/49 47/47/47
f 50/50/50 49/49/49 48/48/48
f 50/50/50 51/51/51 49/49/49
f 41/41/41 51/51/51 50/50/50
f 52/52/52 53/53/53 54/54/54
f 52/52/52 55/55/55 53/53/53
f 56/56/56 55/55/55 52/52/52
f 56/56/56 57/57/57 55/55/55
f 58/58/58 57/57/57 56/56/56
f 58/58/58 59/59/59 57/57/57
f 60/60/60 59/59/59 58/58/58
f 60/60/60 11/11/11 59/59/59
f 53/53/53 1/1/1 61/61/61
f 53/53/53 5/5/5 1/1/1
f 55/55/55 5/5/5 53/53/53
f 55/55/55 7/7/7 5/5/5
f 57/57/57 7/7/7 55/55/55
f 57/57/57 9/9/9 7/7/7
f 59/59/59 9/9/9 57/57/57
f 59/59/59 11/11/11 9/9/9
f 2/2/2 12/12/12 62/62/62
f 2/2/2 16/16/16 12/12/12
f 4/4/4 16/16/16 2/2/2
f 4/4/4 18/18/18 16/16/16
f 6/6/6 18/18/18 4/4/4
f 6/6/6 20/20/20 18/18/18
f 8/8/8 20/20/20 6/6/6
f 8/8/8 10/10/10 20/20/20
f 13/13/13 22/22/22 63/63/63
f 13/13/13 26/26/26 22/22/22
f 15/15/15 26/26/26 13/13/13
f 15/15/15 28/28/28 26/26/26
f 17/17/17 28/28/28 15/15/15
f 17/17/17 30/30/30 28/28/28
f 19/19/19 30/30/30 17/17/17
f 19/19/19 21/21/21 30/30/30
f 23/23/23 32/32/32 64/64/64
f 23/23/23 36/36/36 32/32/32
f 25/25/25 36/36/36 23/23/23
f 25/25/25 38/38/38 36/36/36
f 27/27/27 38/38/38 25/25/25
f 27/27/27 40/40/40 38/38/38
f 29/29/29 40/40/40 27/27/27
f 29/29/29 31/31/31 40/40/40
f 33/33/33 42/42/42 65/65/65
f 33/33/33 46/46/46 42/42/42
f 35/35/35 46/46/46 33/33/33
f 35/35/35 48/48/48 46/46/46
f 37/37/37 48/48/48 35/35/35
f 37/37/37 50/50/50 48/48/48
f 39/39/39 50/50/50 37/37/37
f 39/39/39 41/41/41 50/50/50
f 43/43/43 66/66/66 67/67/67
f 43/43/43 68/68/68 66/66/66
f 45/45/45 68/68/68 43/43/43
f 45/45/45 69/69/69 68/68/68
f 47/47/47 69/69/69 45/45/45
f 47/47/47 70/70/70 69/69/69
f 49/49/49 70/70/70 47/47/47
f 49/49/49 51/51/51 70/70/70
f 71/71/48 72/72/71 73/73/48
f 71/71/48 74/74/72 72/72/71
f 74/74/72 75/75/73 72/72/71
f 74/74/72 76/76/74 75/75/73
f 76/76/74 77/77/75 75/75/73
f 76/76/74 78/78/76 77/77/75
f 78/78/76 79/75/77 77/77/75
f 78/78/76 80/76/78 79/75/77
f 81/73/79 82/74/80 83/71/79
f 81/73/79 84/72/81 82/74/80
f 80/76/78 84/72/81 79/75/77
f 80/76/78 82/74/80 84/72/81
f 70/70/70 51/51/51 85/79/82
f 86/80/83 87/81/84 88/82/85
f 86/80/83 89/83/86 87/81/84
f 90/84/87 89/83/86 86/80/83
f 90/84/87 91/85/88 89/83/86
f 92/86/89 91/85/88 90/84/87
f 92/86/89 93/87/90 91/85/88
f 94/88/91 93/87/90 92/86/89
f 94/88/91 95/89/92 93/87/90
f 96/90/93 95/89/92 94/88/91
f 96/90/93 97/91/94 95/89/92
f 98/92/95 99/93/96 100/94/97
f 98/92/95 101/95/98 99/93/96
f 95/89/92 101/95/98 98/92/95
f 95/89/92 102/96/99 101/95/98
f 103/97/100 102/96/99 95/89/92
f 103/97/100 104/95/101 102/96/99
f 105/89/102 104/95/101 103/97/100
f 105/89/102 106/87/103 104/95/101
f 107/88/104 106/87/103 105/89/102
f 107/88/104 108/86/105 106/87/103
f 109/83/106 110/82/107 111/81/108
f 109/83/106 112/80/109 110/82/107
f 113/84/110 112/80/109 109/83/106
f 113/84/110 114/83/111 112/80/109
f 115/85/112 114/83/111 113/84/110
f 115/85/112 116/92/113 114/83/111
f 117/87/114 116/92/113 115/85/112
f 117/87/114 118/89/115 116/92/113
f 119/90/116 118/89/115 117/87/114
f 119/90/116 120/91/117 118/89/115
f 104/95/101 121/94/118 122/93/119
f 104/95/101 123/92/120 121/94/118
f 106/87/103 123/92/120 104/95/101
f 106/87/103 109/83/106 123/92/120
f 124/85/121 109/83/106 106/87/103
f 124/85/121 113/84/110 109/83/106
f 108/86/105 113/84/110 124/85/121
f 108/86/105 125/98/122 113/84/110
f 116/92/113 126/93/123 127/94/124
f 116/92/113 128/95/125 126/93/123
f 118/89/115 128/95/125 116/92/113
f 118/89/115 129/96/126 128/95/125
f 130/97/127 129/96/126 118/89/115
f 89/83/86 100/94/97 87/81/84
f 89/83/86 98/92/95 100/94/97
f 91/85/88 98/92/95 89/83/86
f 91/85/88 93/87/90 98/92/95
f 131/99/128 132/100/129 133/101/129
f 131/99/128 134/102/129 132/100/129
f 135/103/130 134/102/129 131/99/128
f 131/99/128 136/102/130 135/103/130
f 131/99/128 137/100/131 136/102/130
f 138/101/131 137/100/131 131/99/128
f 131/99/128 139/100/132 138/101/131
f 131/99/128 140/102/132 139/100/132
f 141/103/133 140/102/132 131/99/128
f 142/104/134 143/105/135 144/106/136
f 142/104/134 145/107/137 143/105/135
f 146/108/138 145/107/137 142/104/134
f 142/104/134 147/109/139 146/108/138
f 142/104/134 148/110/140 147/109/139
f 149/111/141 148/110/140 142/104/134
f 142/104/134 150/112/142 149/111/141
f 142/104/134 151/113/143 150/112/142
f 152/114/144 151/113/143 142/104/134
f 101/95/98 153/115/145 99/93/96
f 101/95/98 102/96/99 153/115/145
f 102/96/99 122/93/119 153/115/145
f 102/96/99 104/95/101 122/93/119
f 123/92/120 111/81/108 121/94/118
f 123/92/120 109/83/106 111/81/108
f 112/80/109 154/81/146 110/82/107
f 112/80/109 114/83/111 154/81/146
f 114/83/111 127/94/124 154/81/146
f 114/83/111 116/92/113 127/94/124
f 155/115/147 128/95/125 129/96/126
f 155/115/147 126/93/123 128/95/125
f 105/89/102 156/90/148 107/88/104
f 105/89/102 103/97/100 156/90/148
f 125/98/122 115/85/112 113/84/110
f 125/98/122 157/86/149 115/85/112
f 117/87/114 158/88/150 119/90/116
f 117/87/114 115/85/112 158/88/150
f 103/97/100 97/91/94 156/90/148
f 103/97/100 95/89/92 97/91/94
f 159/100/151 131/99/128 160/101/151
f 159/100/151 161/102/133 131/99/128
f 162/116/152 142/104/134 144/106/136
f 162/116/152 163/117/153 142/104/134
f 157/86/149 158/88/150 115/85/112
f 124/85/121 106/87/103 108/86/105
f 93/87/90 95/89/92 98/92/95
f 130/97/127 118/89/115 120/91/117
f 164/98/154 92/86/89 90/84/87
f 131/99/128 161/102/133 141/103/133
f 163/117/153 152/114/144 142/104/134
# 210 triangles in group

# 210 triangles total

